<svg version="1.1" id="Layer_1" xmlns="http://www.w3.org/2000/svg" xmlns:xlink="http://www.w3.org/1999/xlink" x="0px" y="0px"
	 width="100%" viewBox="0 0 2560 2560" enable-background="new 0 0 2560 2560" xml:space="preserve">
<path fill="#000000" opacity="1.000000" stroke="none" 
	d="
M2294.000000,2562.000000 
	C1529.333374,2562.000000 765.666687,2562.000000 2.000000,2562.000000 
	C2.000000,1708.666626 2.000000,855.333313 2.000000,2.000000 
	C855.333313,2.000000 1708.666626,2.000000 2562.000000,2.000000 
	C2562.000000,855.333313 2562.000000,1708.666626 2562.000000,2562.000000 
	C2473.000000,2562.000000 2384.000000,2562.000000 2294.000000,2562.000000 
M1237.037598,1233.677612 
	C1244.286621,1233.677612 1251.535767,1233.677612 1259.742188,1233.677612 
	C1259.742188,1280.407104 1259.742188,1325.928589 1259.742188,1371.662354 
	C1276.194336,1371.662354 1291.664185,1371.662354 1308.236328,1371.662354 
	C1308.236328,1325.525513 1308.236328,1280.050415 1308.236328,1233.559814 
	C1324.537720,1233.559814 1339.753418,1233.559814 1354.721558,1233.559814 
	C1355.334229,1231.624756 1355.875610,1230.690430 1355.890625,1229.747681 
	C1356.038574,1220.419678 1356.209717,1211.089600 1356.153564,1201.761475 
	C1356.097534,1192.452393 1355.986938,1192.352661 1346.460205,1192.343506 
	C1304.463989,1192.303467 1262.467773,1192.311890 1220.471558,1192.361572 
	C1217.944214,1192.364502 1215.417236,1192.879028 1212.370361,1193.212402 
	C1212.437134,1207.035645 1211.961426,1220.156128 1212.683350,1233.677490 
	C1221.086548,1233.677490 1228.072266,1233.677490 1237.037598,1233.677612 
z"/>
<path fill="#2CEE96" opacity="1.000000" stroke="none" 
	d="
M1236.047729,1233.677490 
	C1228.072266,1233.677490 1221.086548,1233.677490 1212.683350,1233.677490 
	C1211.961426,1220.156128 1212.437134,1207.035645 1212.370361,1193.212402 
	C1215.417236,1192.879028 1217.944214,1192.364502 1220.471558,1192.361572 
	C1262.467773,1192.311890 1304.463989,1192.303467 1346.460205,1192.343506 
	C1355.986938,1192.352661 1356.097534,1192.452393 1356.153564,1201.761475 
	C1356.209717,1211.089600 1356.038574,1220.419678 1355.890625,1229.747681 
	C1355.875610,1230.690430 1355.334229,1231.624756 1354.721558,1233.559814 
	C1339.753418,1233.559814 1324.537720,1233.559814 1308.236328,1233.559814 
	C1308.236328,1280.050415 1308.236328,1325.525513 1308.236328,1371.662354 
	C1291.664185,1371.662354 1276.194336,1371.662354 1259.742188,1371.662354 
	C1259.742188,1325.928589 1259.742188,1280.407104 1259.742188,1233.677612 
	C1251.535767,1233.677612 1244.286621,1233.677612 1236.047729,1233.677490 
z"/>
</svg>